<?xml version="1.0" encoding="utf-8"?>
<!-- Generator: Adobe Illustrator 25.0.0, SVG Export Plug-In . SVG Version: 6.00 Build 0)  -->
<svg version="1.1" id="Слой_1" xmlns="http://www.w3.org/2000/svg" xmlns:xlink="http://www.w3.org/1999/xlink" x="0px" y="0px"
	 viewBox="0 0 24 24" style="enable-background:new 0 0 24 24;" xml:space="preserve">
<style type="text/css">
	.st0{fill:#717171;}
</style>
<path class="st0" d="M20.6,8.7c-0.7-0.8-1.8-1.3-3.3-1.4V6.5c0-1.5-0.6-2.9-1.7-3.9c-1.1-1-2.6-1.5-4-1.3C8.9,1.5,6.8,4,6.8,6.7v0.6
	C5.2,7.5,4.2,7.9,3.4,8.7c-0.8,0.9-1.1,2.1-0.9,3.8l0.7,6c0.2,2.1,1.1,4.2,5.7,4.2h6c4.6,0,5.5-2.1,5.7-4.2l0.8-6
	C21.6,10.8,21.3,9.6,20.6,8.7z M11.6,2.8c1.1-0.1,2.1,0.2,2.9,1c0.8,0.7,1.2,1.7,1.2,2.8v0.7H8.3V6.7C8.3,4.8,9.8,2.9,11.6,2.8z
	 M20,12.3l-0.8,6c-0.2,1.6-0.6,2.9-4.2,2.9H9c-3.6,0-4-1.3-4.2-2.9l-0.7-6c-0.1-1.2,0-2.1,0.5-2.6c0.6-0.7,1.7-1,3.4-1h8
	c1.7,0,2.9,0.3,3.4,1C19.9,10.3,20.1,11.1,20,12.3z"/>
<path class="st0" d="M15.5,11L15.5,11c-0.6,0-1,0.4-1,1s0.5,1,1,1s1-0.4,1-1S16.1,11,15.5,11z"/>
<path class="st0" d="M8.5,11L8.5,11c-0.6,0-1,0.4-1,1s0.5,1,1,1s1-0.4,1-1S9.1,11,8.5,11z"/>
</svg>
