<?xml version="1.0" encoding="utf-8"?>
<!-- Generator: Adobe Illustrator 25.0.0, SVG Export Plug-In . SVG Version: 6.00 Build 0)  -->
<svg version="1.1" id="Слой_1" xmlns="http://www.w3.org/2000/svg" xmlns:xlink="http://www.w3.org/1999/xlink" x="0px" y="0px"
	 viewBox="0 0 24 24" style="enable-background:new 0 0 24 24;" xml:space="preserve">
<style type="text/css">
	.st0{fill:#222222;}
</style>
<path class="st0" d="M17.9,4.8c-0.2,0-0.3,0-0.5,0.1c-0.2,0.1-0.3,0.2-0.4,0.3c-0.1,0.1-0.2,0.3-0.3,0.4c-0.1,0.2-0.1,0.3-0.1,0.5
	s0,0.3,0.1,0.5c0.1,0.2,0.2,0.3,0.3,0.4c0.1,0.1,0.3,0.2,0.4,0.3c0.2,0.1,0.3,0.1,0.5,0.1c0.4,0,0.7-0.1,0.9-0.4s0.4-0.6,0.4-0.9
	c0-0.4-0.1-0.7-0.4-0.9S18.2,4.8,17.9,4.8z"/>
<path class="st0" d="M22.9,7.5c-0.1-1.2-0.2-2-0.5-2.7c-0.3-0.7-0.7-1.4-1.3-1.9c-0.5-0.6-1.2-1-1.9-1.3c-0.7-0.3-1.5-0.5-2.7-0.5
	C15.4,1,15,1,12,1C9,1,8.6,1,7.5,1.1c-1.2,0.1-2,0.2-2.7,0.5C4.1,1.9,3.4,2.3,2.8,2.8c-0.6,0.5-1,1.2-1.3,1.9
	C1.3,5.5,1.1,6.3,1.1,7.5C1,8.6,1,9,1,12c0,3,0,3.4,0.1,4.5c0.1,1.2,0.2,2,0.5,2.7c0.3,0.7,0.7,1.3,1.3,1.9c0.6,0.6,1.2,1,1.9,1.3
	c0.7,0.3,1.5,0.5,2.7,0.5C8.6,23,9,23,12,23c3,0,3.4,0,4.5-0.1c1.2-0.1,2-0.2,2.7-0.5c0.7-0.3,1.4-0.7,1.9-1.3
	c0.6-0.6,1-1.2,1.3-1.9c0.3-0.7,0.5-1.5,0.5-2.7C23,15.4,23,15,23,12C23,9,23,8.6,22.9,7.5z M21,16.4c0,1.1-0.2,1.7-0.4,2
	c-0.2,0.5-0.5,0.9-0.8,1.3c-0.4,0.4-0.8,0.6-1.3,0.8c-0.4,0.2-1,0.3-2,0.4C15.3,21,14.9,21,12,21s-3.3,0-4.4-0.1
	c-1.1,0-1.7-0.2-2-0.4c-0.5-0.2-0.9-0.5-1.3-0.8c-0.4-0.4-0.6-0.8-0.8-1.3c-0.1-0.4-0.3-1-0.4-2C3,15.3,3,14.9,3,12
	C3,9.1,3,8.7,3,7.6c0-1.1,0.2-1.7,0.4-2C3.6,5,3.9,4.6,4.2,4.2C4.6,3.9,5,3.6,5.5,3.4c0.4-0.2,1-0.3,2-0.4C8.6,3,9,3,11,3v0h1
	c2.9,0,3.3,0,4.4,0.1c1.1,0,1.7,0.2,2,0.4c0.5,0.2,0.9,0.4,1.3,0.8s0.6,0.8,0.8,1.3c0.2,0.4,0.3,1,0.4,2C21,8.7,21,9.1,21,12
	C21,14.9,21,15.3,21,16.4z"/>
<path class="st0" d="M12,6.4c-0.7,0-1.5,0.1-2.2,0.4C9.1,7,8.5,7.4,7.9,8C7.4,8.5,7,9.1,6.7,9.8c-0.3,0.7-0.4,1.4-0.4,2.2
	c0,0.7,0.1,1.5,0.4,2.2s0.7,1.3,1.2,1.8s1.2,0.9,1.9,1.2c0.7,0.3,1.4,0.4,2.2,0.4c1.5,0,2.9-0.6,3.9-1.7c1-1.1,1.6-2.5,1.6-4
	c0-1.5-0.6-2.9-1.6-4C14.9,7,13.5,6.4,12,6.4z M14.6,14.6c-0.7,0.7-1.6,1.1-2.6,1.1s-1.9-0.4-2.6-1.1C8.7,13.9,8.3,13,8.3,12
	s0.4-1.9,1.1-2.6C10.1,8.7,11,8.3,12,8.3s1.9,0.4,2.6,1.1c0.7,0.7,1.1,1.6,1.1,2.6S15.3,13.9,14.6,14.6z"/>
</svg>
