<?xml version="1.0" encoding="utf-8"?>
<!-- Generator: Adobe Illustrator 25.0.0, SVG Export Plug-In . SVG Version: 6.00 Build 0)  -->
<svg version="1.1" id="Слой_1" xmlns="http://www.w3.org/2000/svg" xmlns:xlink="http://www.w3.org/1999/xlink" x="0px" y="0px"
	 viewBox="0 0 25 24" style="enable-background:new 0 0 25 24;" xml:space="preserve">
<style type="text/css">
	.st0{fill:#717171;}
</style>
<path class="st0" d="M22.3,21.3h-0.4V13c0-1.5-1-2.8-2.4-3.4V7.2c0-1.4-1-2.5-2.4-2.8V3c0-0.4-0.3-0.8-0.8-0.8S15.5,2.6,15.5,3v1.3
	H13V2c0-0.4-0.3-0.8-0.7-0.8S11.5,1.6,11.5,2v2.3H9V3c0-0.4-0.3-0.8-0.8-0.8S7.5,2.6,7.5,3v1.3C6.1,4.6,5.1,5.8,5.1,7.2v2.4
	c-1.4,0.6-2.5,1.9-2.5,3.4v8.3H2.3c-0.4,0-0.8,0.3-0.8,0.8s0.3,0.8,0.8,0.8h20c0.4,0,0.8-0.3,0.8-0.8S22.7,21.3,22.3,21.3z M6.6,7.2
	c0-0.8,0.7-1.4,1.7-1.4h8c0.9,0,1.7,0.6,1.7,1.4v2.1c0,0-0.1,0-0.1,0H6.7c0,0-0.1,0-0.1,0V7.2z M6.7,10.8h11.1c1.4,0,2.6,1,2.6,2.3
	v0.3h0c-1.2,0-2.1,0.9-2.1,2.1v0.3c0,0.3-0.3,0.6-0.6,0.6s-0.6-0.3-0.6-0.6v-0.3c0-1.2-0.9-2.1-2.1-2.1s-2.1,0.9-2.1,2.1v0.3
	c0,0.3-0.3,0.6-0.6,0.6c-0.3,0-0.6-0.3-0.6-0.6v-0.3c0-1.2-0.9-2.1-2.1-2.1s-2.1,0.9-2.1,2.1v0.3c0,0.3-0.3,0.6-0.6,0.6
	c-0.3,0-0.6-0.3-0.6-0.6v-0.3c0-1.1-0.9-2.1-2.1-2.1l-0.1,0V13C4.1,11.8,5.3,10.8,6.7,10.8z M4.1,14.7L4.1,14.7
	c0.4,0,0.6,0.3,0.6,0.6v0.3c0,1.2,0.9,2.1,2.1,2.1C8,17.8,9,16.8,9,15.7v-0.3c0-0.3,0.3-0.6,0.6-0.6s0.6,0.3,0.6,0.6v0.3
	c0,1.2,0.9,2.1,2.1,2.1s2.1-0.9,2.1-2.1v-0.3c0-0.3,0.3-0.6,0.6-0.6s0.6,0.3,0.6,0.6v0.3c0,1.2,0.9,2.1,2.1,2.1s2.1-0.9,2.1-2.1
	v-0.3c0-0.3,0.3-0.6,0.6-0.6h0v6.5H4.1V14.7z"/>
</svg>
