<?xml version="1.0" encoding="utf-8"?>
<!-- Generator: Adobe Illustrator 25.0.0, SVG Export Plug-In . SVG Version: 6.00 Build 0)  -->
<svg version="1.1" id="Слой_1" xmlns="http://www.w3.org/2000/svg" xmlns:xlink="http://www.w3.org/1999/xlink" x="0px" y="0px"
	 viewBox="0 0 25 24" style="enable-background:new 0 0 25 24;" xml:space="preserve">
<style type="text/css">
	.st0{fill:#717171;}
</style>
<path class="st0" d="M23.7,10.7c-0.1-0.1-0.3-0.2-0.5-0.2h-1l-2.6-5.9C19.5,4.4,19.3,4.2,19,4c-0.2-0.2-0.5-0.2-0.8-0.2h-11
	c0,0,0,0,0,0C6.9,3.8,6.6,3.8,6.4,4C6.1,4.2,5.9,4.4,5.8,4.6l-2.6,5.9h-1c-0.2,0-0.4,0.1-0.5,0.2S1.5,11,1.5,11.3s0.1,0.4,0.2,0.5
	S2,12,2.2,12H3v7.5c0,0.4,0.2,0.8,0.4,1.1S4.1,21,4.5,21h2.3c0.4,0,0.8-0.2,1.1-0.4l0.1-0.1c0.2-0.3,0.4-0.6,0.4-1V18h9v1.5
	c0,0.4,0.2,0.8,0.4,1.1c0.3,0.3,0.7,0.4,1.1,0.4H21c0.4,0,0.8-0.2,1.1-0.4c0.3-0.3,0.4-0.7,0.4-1.1V12h0.8c0.2,0,0.4-0.1,0.5-0.2
	c0.1-0.1,0.2-0.3,0.2-0.5S23.9,10.9,23.7,10.7z M18.5,16.7c-0.1-0.1-0.3-0.2-0.5-0.2H7.5c-0.2,0-0.4,0.1-0.5,0.2S6.7,17,6.7,17.3
	v2.3H4.5V12H21v7.5h-2.3v-2.3C18.7,17,18.6,16.9,18.5,16.7z M4.9,10.5l2.3-5.3h11l2.3,5.3H4.9z"/>
</svg>
