<?xml version="1.0" encoding="utf-8"?>
<!-- Generator: Adobe Illustrator 25.0.0, SVG Export Plug-In . SVG Version: 6.00 Build 0)  -->
<svg version="1.1" id="Слой_1" xmlns="http://www.w3.org/2000/svg" xmlns:xlink="http://www.w3.org/1999/xlink" x="0px" y="0px"
	 viewBox="0 0 24 24" style="enable-background:new 0 0 24 24;" xml:space="preserve">
<style type="text/css">
	.st0{fill:#222222;}
</style>
<path class="st0" d="M15.4,8.6c-0.3-0.3-0.8-0.3-1.1,0L12,10.9L9.7,8.6c-0.3-0.3-0.8-0.3-1.1,0s-0.3,0.8,0,1.1l2.3,2.3l-2.3,2.3
	c-0.3,0.3-0.3,0.8,0,1.1c0.1,0.1,0.3,0.2,0.5,0.2s0.4-0.1,0.5-0.2l2.3-2.3l2.3,2.3c0.1,0.1,0.3,0.2,0.5,0.2s0.4-0.1,0.5-0.2
	c0.3-0.3,0.3-0.8,0-1.1L13.1,12l2.3-2.3C15.7,9.4,15.7,8.9,15.4,8.6z"/>
<path class="st0" d="M15,1.3H9C3.6,1.3,1.3,3.6,1.3,9v6c0,5.4,2.3,7.8,7.8,7.8h6c5.4,0,7.8-2.3,7.8-7.8V9C22.8,3.6,20.4,1.3,15,1.3z
	 M21.3,15c0,4.6-1.6,6.3-6.3,6.3H9c-4.6,0-6.3-1.6-6.3-6.3V9c0-4.6,1.6-6.3,6.3-6.3h6c4.6,0,6.3,1.6,6.3,6.3V15z"/>
</svg>
