<?xml version="1.0" encoding="utf-8"?>
<!-- Generator: Adobe Illustrator 25.0.0, SVG Export Plug-In . SVG Version: 6.00 Build 0)  -->
<svg version="1.1" id="Слой_1" xmlns="http://www.w3.org/2000/svg" xmlns:xlink="http://www.w3.org/1999/xlink" x="0px" y="0px"
	 viewBox="0 0 23 20" style="enable-background:new 0 0 23 20;" xml:space="preserve">
<style type="text/css">
	.st0{fill:#717171;}
</style>
<path class="st0" d="M21.2,1.8c-0.4-0.1-1.1-0.3-2,0.7l-2.6,2.6c-0.1,0.1-0.1,0.1-0.2,0.1h0c0,0-0.1,0-0.2-0.1l-3.6-3.6
	C12.3,1.1,11.9,1,11.4,1c0,0,0,0,0,0c-0.5,0-0.9,0.2-1.2,0.5L6.6,5.1C6.5,5.1,6.5,5.1,6.4,5.1c-0.1,0-0.1,0-0.2-0.1L3.7,2.5
	C2.7,1.5,2,1.7,1.6,1.8c-0.4,0.1-1,0.6-1,1.9v9.6c0,3.2,2.6,5.7,5.8,5.8h10c3.4,0,5.8-2.3,5.8-5.8V3.7C22.2,2.4,21.6,2,21.2,1.8z
	 M20.7,13.3c0,2.6-1.7,4.3-4.3,4.3h-10c-2.3,0-4.3-1.9-4.3-4.3V3.7c0-0.2,0-0.4,0.1-0.5c0.1,0,0.2,0.1,0.4,0.3l2.6,2.6
	C5.5,6.5,6,6.6,6.4,6.6c0.5,0,0.9-0.2,1.2-0.5l3.6-3.6c0.1-0.1,0.1-0.1,0.2-0.1c0.1,0,0.1,0,0.2,0.1l3.6,3.6
	c0.3,0.3,0.8,0.5,1.3,0.5c0.5,0,0.9-0.2,1.2-0.5l2.6-2.6c0.2-0.2,0.3-0.3,0.4-0.3c0,0.1,0.1,0.2,0.1,0.5V13.3z"/>
</svg>
