<?xml version="1.0" encoding="utf-8"?>
<!-- Generator: Adobe Illustrator 25.0.0, SVG Export Plug-In . SVG Version: 6.00 Build 0)  -->
<svg version="1.1" id="Слой_1" xmlns="http://www.w3.org/2000/svg" xmlns:xlink="http://www.w3.org/1999/xlink" x="0px" y="0px"
	 viewBox="0 0 17 22" style="enable-background:new 0 0 17 22;" xml:space="preserve">
<style type="text/css">
	.st0{fill:#292D32;}
</style>
<path class="st0" d="M6.6,21.8c-0.2,0-0.4,0-0.5-0.1C5.7,21.5,5,21,5,19.5V13H2.7c-1.3,0-1.8-0.6-2-1s-0.3-1.2,0.6-2.2l7.6-8.6
	c1-1.2,1.9-1.1,2.3-0.9c0.4,0.2,1.1,0.6,1.1,2.2V9h2.3c1.3,0,1.8,0.6,2,1c0.2,0.4,0.3,1.2-0.6,2.2l-7.6,8.6
	C7.6,21.5,7,21.8,6.6,21.8z M6.7,20.3L6.7,20.3L6.7,20.3z M10.5,1.7c0,0-0.2,0.1-0.6,0.5l-7.6,8.6C2.1,11.2,2,11.4,2,11.4
	c0,0,0.2,0.1,0.6,0.1h3.1c0.4,0,0.8,0.3,0.8,0.8v7.2c0,0.5,0.1,0.7,0.1,0.8c0,0,0.2-0.1,0.6-0.5l7.6-8.6c0.3-0.3,0.3-0.5,0.3-0.6
	c0,0-0.2-0.1-0.6-0.1h-3.1c-0.4,0-0.8-0.3-0.8-0.8V2.5C10.6,2,10.5,1.8,10.5,1.7z"/>
</svg>
