<?xml version="1.0" encoding="utf-8"?>
<!-- Generator: Adobe Illustrator 25.0.0, SVG Export Plug-In . SVG Version: 6.00 Build 0)  -->
<svg version="1.1" id="Слой_1" xmlns="http://www.w3.org/2000/svg" xmlns:xlink="http://www.w3.org/1999/xlink" x="0px" y="0px"
	 viewBox="0 0 24 24" style="enable-background:new 0 0 24 24;" xml:space="preserve">
<style type="text/css">
	.st0{fill:#717171;}
</style>
<path class="st0" d="M12,1.3C6,1.3,1.2,6.1,1.2,12S6,22.8,12,22.8c5.9,0,10.7-4.8,10.7-10.8S17.9,1.3,12,1.3z M12,21.3
	c-5.1,0-9.3-4.1-9.3-9.3S6.9,2.8,12,2.8c5.1,0,9.2,4.1,9.2,9.3S17.1,21.3,12,21.3z"/>
<path class="st0" d="M16.2,15.6c-1,1.4-2.5,2.2-4.2,2.2c-1.7,0-3.2-0.8-4.2-2.2c-0.2-0.3-0.7-0.4-1-0.2c-0.3,0.2-0.4,0.7-0.2,1
	c1.2,1.8,3.2,2.8,5.4,2.8c2.1,0,4.2-1.1,5.4-2.8c0.2-0.3,0.2-0.8-0.2-1C16.9,15.1,16.4,15.2,16.2,15.6z"/>
</svg>
