<?xml version="1.0" encoding="utf-8"?>
<!-- Generator: Adobe Illustrator 25.0.0, SVG Export Plug-In . SVG Version: 6.00 Build 0)  -->
<svg version="1.1" id="Слой_1" xmlns="http://www.w3.org/2000/svg" xmlns:xlink="http://www.w3.org/1999/xlink" x="0px" y="0px"
	 viewBox="0 0 24 24" style="enable-background:new 0 0 24 24;" xml:space="preserve">
<style type="text/css">
	.st0{fill:#FFFFFF;}
	.st1{fill:#717171;}
</style>
<path class="st0" d="M12.6,20.8c-0.3,0.1-0.9,0.1-1.2,0C8.5,19.8,2,15.7,2,8.7c0-3.1,2.5-5.6,5.6-5.6C9.4,3.1,11,4,12,5.3
	c1-1.4,2.6-2.2,4.4-2.2c3.1,0,5.6,2.5,5.6,5.6C22,15.7,15.5,19.8,12.6,20.8z"/>
<path class="st1" d="M12,21.7c-0.3,0-0.6,0-0.9-0.1c-2.6-0.9-9.9-5.1-9.9-12.8c0-3.5,2.8-6.3,6.3-6.3c1.7,0,3.3,0.7,4.4,1.8
	c1.2-1.2,2.8-1.8,4.4-1.8c3.5,0,6.3,2.8,6.3,6.3c0,7.7-7.3,12-9.9,12.8C12.6,21.6,12.3,21.7,12,21.7z M7.6,3.9
	C4.9,3.9,2.8,6,2.8,8.7c0,6.8,6.6,10.6,8.9,11.4c0.2,0.1,0.6,0.1,0.7,0c0,0,0,0,0,0c2.3-0.8,8.9-4.6,8.9-11.4c0-2.7-2.2-4.8-4.8-4.8
	c-1.5,0-2.9,0.7-3.8,1.9c-0.3,0.4-0.9,0.4-1.2,0C10.5,4.6,9.1,3.9,7.6,3.9z"/>
</svg>
