<?xml version="1.0" encoding="utf-8"?>
<!-- Generator: Adobe Illustrator 25.0.0, SVG Export Plug-In . SVG Version: 6.00 Build 0)  -->
<svg version="1.1" id="Слой_1" xmlns="http://www.w3.org/2000/svg" xmlns:xlink="http://www.w3.org/1999/xlink" x="0px" y="0px"
	 viewBox="0 0 16 16" style="enable-background:new 0 0 16 16;" xml:space="preserve">
<style type="text/css">
	.st0{fill:#717171;}
</style>
<path class="st0" d="M8,4C6.4,4,5.2,5.3,5.2,6.9c0,1.6,1.3,2.8,2.8,2.8s2.8-1.3,2.8-2.8C10.8,5.3,9.6,4,8,4z M8,8.2
	c-0.7,0-1.3-0.6-1.3-1.3c0-0.7,0.6-1.3,1.3-1.3s1.3,0.6,1.3,1.3C9.3,7.6,8.7,8.2,8,8.2z"/>
<path class="st0" d="M14.3,5.5C13.5,2.1,10.6,0.6,8,0.6c0,0,0,0,0,0c-2.6,0-5.5,1.5-6.3,4.9v0c-0.8,3.7,1.4,6.8,3.4,8.7
	C5.9,15,6.9,15.4,8,15.4c1.1,0,2.1-0.4,2.9-1.2C12.9,12.3,15.2,9.2,14.3,5.5z M9.9,13.2c-1.1,1-2.7,1-3.8,0c-1.7-1.7-3.7-4.3-3-7.3
	c0.6-2.8,3-3.7,4.9-3.7c0,0,0,0,0,0c1.8,0,4.2,1,4.9,3.7C13.5,8.9,11.6,11.5,9.9,13.2z"/>
</svg>
