<?xml version="1.0" encoding="utf-8"?>
<!-- Generator: Adobe Illustrator 25.0.0, SVG Export Plug-In . SVG Version: 6.00 Build 0)  -->
<svg version="1.1" id="Слой_1" xmlns="http://www.w3.org/2000/svg" xmlns:xlink="http://www.w3.org/1999/xlink" x="0px" y="0px"
	 viewBox="0 0 25 24" style="enable-background:new 0 0 25 24;" xml:space="preserve">
<style type="text/css">
	.st0{fill:#717171;}
</style>
<path class="st0" d="M21.6,3.9c-0.8-0.5-1.8-0.4-2.9,0.2l-2.3,1.3c-0.3,0.2-0.9,0.2-1.2,0L10,2.8C9.2,2.5,8.1,2.5,7.4,2.9L3.1,5.4
	C2.3,5.9,1.7,6.9,1.7,7.8v9.7c0,1.2,0.5,2.1,1.3,2.6c0.8,0.5,1.8,0.4,2.9-0.2l2.3-1.3c0.3-0.2,0.9-0.2,1.2,0l5.3,2.6
	c0.4,0.2,0.8,0.3,1.2,0.3c0.5,0,1-0.1,1.4-0.3l4.3-2.5c0.8-0.5,1.4-1.5,1.4-2.4V6.5C22.9,5.3,22.4,4.4,21.6,3.9z M5,18.6
	c-0.5,0.3-1,0.4-1.4,0.2c-0.3-0.2-0.5-0.7-0.5-1.3V7.8c0-0.4,0.3-0.9,0.6-1.1L8,4.3V17c0,0,0,0,0,0c-0.2,0.1-0.4,0.1-0.6,0.2L5,18.6
	z M10,17.2C9.8,17.1,9.6,17,9.5,17c0,0,0,0,0,0V4.3l5.1,2.6C14.7,6.9,14.9,7,15.1,7v12.8L10,17.2z M21.4,16.2c0,0.4-0.3,0.9-0.6,1.1
	l-4.1,2.4V7c0.2-0.1,0.4-0.1,0.6-0.2l2.4-1.3c0.5-0.3,1-0.4,1.4-0.2c0.3,0.2,0.5,0.7,0.5,1.3V16.2z"/>
</svg>
