<svg width="24" height="24" viewBox="0 0 24 24" fill="none" xmlns="http://www.w3.org/2000/svg">
<path d="M9.8 15L15.509 11.7L9.8 8.4V15ZM22.516 6.387C22.659 6.904 22.758 7.597 22.824 8.477C22.901 9.357 22.934 10.116 22.934 10.776L23 11.7C23 14.109 22.824 15.88 22.516 17.013C22.241 18.003 21.603 18.641 20.613 18.916C20.096 19.059 19.15 19.158 17.698 19.224C16.268 19.301 14.959 19.334 13.749 19.334L12 19.4C7.391 19.4 4.52 19.224 3.387 18.916C2.397 18.641 1.759 18.003 1.484 17.013C1.341 16.496 1.242 15.803 1.176 14.923C1.099 14.043 1.066 13.284 1.066 12.624L1 11.7C1 9.291 1.176 7.52 1.484 6.387C1.759 5.397 2.397 4.759 3.387 4.484C3.904 4.341 4.85 4.242 6.302 4.176C7.732 4.099 9.041 4.066 10.251 4.066L12 4C16.609 4 19.48 4.176 20.613 4.484C21.603 4.759 22.241 5.397 22.516 6.387Z" fill="#222222"/>
</svg>
