<?xml version="1.0" encoding="utf-8"?>
<!-- Generator: Adobe Illustrator 25.0.0, SVG Export Plug-In . SVG Version: 6.00 Build 0)  -->
<svg version="1.1" id="Слой_1" xmlns="http://www.w3.org/2000/svg" xmlns:xlink="http://www.w3.org/1999/xlink" x="0px" y="0px"
	 viewBox="0 0 24 24" style="enable-background:new 0 0 24 24;" xml:space="preserve">
<style type="text/css">
	.st0{fill:#717171;}
</style>
<path class="st0" d="M3,7.8h18c0.4,0,0.8-0.3,0.8-0.8S21.4,6.3,21,6.3H3C2.6,6.3,2.3,6.6,2.3,7S2.6,7.8,3,7.8z"/>
<path class="st0" d="M21,11.3H3c-0.4,0-0.8,0.3-0.8,0.8s0.3,0.8,0.8,0.8h18c0.4,0,0.8-0.3,0.8-0.8S21.4,11.3,21,11.3z"/>
<path class="st0" d="M21,16.3H3c-0.4,0-0.8,0.3-0.8,0.8s0.3,0.8,0.8,0.8h18c0.4,0,0.8-0.3,0.8-0.8S21.4,16.3,21,16.3z"/>
</svg>
