<svg width="21" height="22" viewBox="0 0 21 22" fill="none" xmlns="http://www.w3.org/2000/svg">
<path d="M19.9924 19.2171L16.4481 15.6727C17.9434 14.0113 18.8295 11.7961 18.8295 9.41473C18.8295 4.20894 14.6205 0 9.41473 0C4.20894 0 0 4.20894 0 9.41473C0 14.6205 4.20894 18.8295 9.41473 18.8295C11.0208 18.8295 12.516 18.4418 13.8452 17.7218L17.6665 21.5431C18.2756 22.1523 19.3279 22.1523 19.9371 21.5431C20.6016 20.8785 20.6016 19.8817 19.9924 19.2171V19.2171ZM2.71366 9.41473C2.71366 5.70422 5.7596 2.65828 9.47011 2.65828C10.8546 2.65828 12.073 3.04594 13.1806 3.76589L9.30396 10.0239L7.64254 7.91945C7.42102 7.58716 7.03335 7.42102 6.64569 7.42102C6.36878 7.42102 6.09188 7.53178 5.87036 7.69792C5.31655 8.14097 5.20579 8.9163 5.64884 9.47011L8.36249 13.0145C8.58401 13.3468 8.97168 13.5129 9.35934 13.5129H9.41473C9.80239 13.5129 10.1901 13.2914 10.4116 12.9037L15.0082 5.59345C15.7835 6.70107 16.2266 8.03021 16.2266 9.47011C16.2266 13.1806 13.1806 16.2266 9.47011 16.2266C5.7596 16.1712 2.71366 13.1252 2.71366 9.41473Z" fill="#222222"/>
</svg>
