<?xml version="1.0" encoding="utf-8"?>
<!-- Generator: Adobe Illustrator 25.0.0, SVG Export Plug-In . SVG Version: 6.00 Build 0)  -->
<svg version="1.1" id="Слой_1" xmlns="http://www.w3.org/2000/svg" xmlns:xlink="http://www.w3.org/1999/xlink" x="0px" y="0px"
	 viewBox="0 0 24 24" style="enable-background:new 0 0 24 24;" xml:space="preserve">
<style type="text/css">
	.st0{fill:#717171;}
</style>
<path class="st0" d="M16,7.3h6c0.4,0,0.8-0.3,0.8-0.8S22.4,5.8,22,5.8h-6c-0.4,0-0.8,0.3-0.8,0.8S15.6,7.3,16,7.3z"/>
<path class="st0" d="M2,7.3h3.8c0.4,2,2.1,3.5,4.2,3.5c2.3,0,4.3-1.9,4.3-4.3S12.3,2.3,10,2.3c-2.1,0-3.8,1.5-4.2,3.5H2
	c-0.4,0-0.8,0.3-0.8,0.8S1.6,7.3,2,7.3z M10,3.8c1.5,0,2.8,1.2,2.8,2.8S11.5,9.3,10,9.3S7.3,8,7.3,6.5S8.5,3.8,10,3.8z"/>
<path class="st0" d="M22,16.8h-3.8c-0.4-2-2.1-3.5-4.2-3.5c-2.3,0-4.3,1.9-4.3,4.3s1.9,4.3,4.3,4.3c2.1,0,3.8-1.5,4.2-3.5H22
	c0.4,0,0.8-0.3,0.8-0.8S22.4,16.8,22,16.8z M14,20.3c-1.5,0-2.8-1.2-2.8-2.8s1.2-2.8,2.8-2.8s2.8,1.2,2.8,2.8S15.5,20.3,14,20.3z"/>
<path class="st0" d="M8,16.8H2c-0.4,0-0.8,0.3-0.8,0.8s0.3,0.8,0.8,0.8h6c0.4,0,0.8-0.3,0.8-0.8S8.4,16.8,8,16.8z"/>
</svg>
