<?xml version="1.0" encoding="utf-8"?>
<!-- Generator: Adobe Illustrator 25.0.0, SVG Export Plug-In . SVG Version: 6.00 Build 0)  -->
<svg version="1.1" id="Слой_1" xmlns="http://www.w3.org/2000/svg" xmlns:xlink="http://www.w3.org/1999/xlink" x="0px" y="0px"
	 viewBox="0 0 25 24" style="enable-background:new 0 0 25 24;" xml:space="preserve">
<style type="text/css">
	.st0{fill:#717171;}
</style>
<path class="st0" d="M18,5.3c-1.7,0-3.8,0.7-3.8,3.8v2.3h-2.9V9c0-3.1-2-3.8-3.8-3.8S3.9,5.9,3.9,9v6c0,3.1,2,3.8,3.8,3.8
	s3.8-0.7,3.8-3.8v-2.3h2.9V15c0,3.1,2,3.8,3.8,3.8s3.8-0.7,3.8-3.8V9C21.8,5.9,19.7,5.3,18,5.3z M9.9,15c0,1.6-0.6,2.3-2.3,2.3
	S5.4,16.6,5.4,15V9c0-1.6,0.6-2.3,2.3-2.3S9.9,7.4,9.9,9V15z M20.3,15c0,1.6-0.6,2.3-2.3,2.3s-2.3-0.6-2.3-2.3V9
	c0-1.6,0.6-2.3,2.3-2.3s2.3,0.6,2.3,2.3V15z"/>
<path class="st0" d="M23.4,8.8c-0.4,0-0.8,0.3-0.8,0.8v5c0,0.4,0.3,0.8,0.8,0.8s0.8-0.3,0.8-0.8v-5C24.1,9.1,23.8,8.8,23.4,8.8z"/>
<path class="st0" d="M2.4,8.8c-0.4,0-0.8,0.3-0.8,0.8v5c0,0.4,0.3,0.8,0.8,0.8s0.8-0.3,0.8-0.8v-5C3.1,9.1,2.8,8.8,2.4,8.8z"/>
</svg>
